<svg width="960" height="580" xmlns="http://www.w3.org/2000/svg"><defs><marker id="arrowhead" markerWidth="12" markerHeight="13" refX="8" refY="5.5" orient="auto" viewBox="-1 -1 14 13"><polyline points="0 0.5, 8 5.5, 0 10.4" fill="none" stroke="#000" stroke-width="1.5" stroke-linejoin="miter"/></marker></defs><rect width="960" height="580" fill="#fff"/><polyline points="340,100 364,100 364,100 388,100" fill="none" stroke="#000" stroke-width="2" marker-end="url(#arrowhead)"/><polyline points="640,100 664,100 664,100 688,100" fill="none" stroke="#000" stroke-width="2" marker-end="url(#arrowhead)"/><line x1="815" y1="150" x2="815" y2="348" stroke="#000" stroke-width="2" marker-end="url(#arrowhead)"/><polyline points="690,400 666,400 666,400 642,400" fill="none" stroke="#000" stroke-width="2" marker-end="url(#arrowhead)"/><polyline points="390,400 366,400 366,400 342,400" fill="none" stroke="#000" stroke-width="2" marker-end="url(#arrowhead)"/><rect x="90" y="50" width="250" height="100" fill="#FFE691" stroke="#000" stroke-width="2"/><text x="215" y="100" font-family="'Arial Narrow', 'Helvetica Neue Condensed', 'Ubuntu Condensed', 'Liberation Sans Narrow', Impact, sans-serif" font-size="24" text-anchor="middle" dominant-baseline="middle" font-weight="normal">Start</text><rect x="390" y="50" width="250" height="100" fill="#FFE691" stroke="#000" stroke-width="2"/><text x="515" y="100" font-family="'Arial Narrow', 'Helvetica Neue Condensed', 'Ubuntu Condensed', 'Liberation Sans Narrow', Impact, sans-serif" font-size="24" font-weight="normal" text-anchor="middle" dominant-baseline="middle">Step 1</text><rect x="690" y="50" width="250" height="100" fill="#FFE691" stroke="#000" stroke-width="2"/><text x="815" y="100" font-family="'Arial Narrow', 'Helvetica Neue Condensed', 'Ubuntu Condensed', 'Liberation Sans Narrow', Impact, sans-serif" font-size="24" font-weight="normal" text-anchor="middle" dominant-baseline="middle">Step 2</text><rect x="690" y="350" width="250" height="100" fill="#FFCE33" stroke="#000" stroke-width="2"/><text x="815" y="400" font-family="'Arial Narrow', 'Helvetica Neue Condensed', 'Ubuntu Condensed', 'Liberation Sans Narrow', Impact, sans-serif" font-size="24" text-anchor="middle" dominant-baseline="middle" font-weight="normal">Step 3</text><rect x="390" y="350" width="250" height="100" fill="#FFCE33" stroke="#000" stroke-width="2"/><text x="515" y="400" font-family="'Arial Narrow', 'Helvetica Neue Condensed', 'Ubuntu Condensed', 'Liberation Sans Narrow', Impact, sans-serif" font-size="24" font-weight="normal" text-anchor="middle" dominant-baseline="middle">Step 4</text><rect x="90" y="350" width="250" height="100" fill="#FFCE33" stroke="#000" stroke-width="2"/><text x="215" y="400" font-family="'Arial Narrow', 'Helvetica Neue Condensed', 'Ubuntu Condensed', 'Liberation Sans Narrow', Impact, sans-serif" font-size="24" text-anchor="middle" dominant-baseline="middle" font-weight="normal">End</text></svg>