<svg width="1260" height="580" xmlns="http://www.w3.org/2000/svg"><defs><marker id="arrowhead" markerWidth="12" markerHeight="13" refX="8" refY="5.5" orient="auto" viewBox="-1 -1 14 13"><polyline points="0 0.5, 8 5.5, 0 10.4" fill="none" stroke="#000" stroke-width="1.5" stroke-linejoin="miter"/></marker></defs><rect width="1260" height="580" fill="#fff"/><polyline points="340,100 439,100 439,100 538,100" fill="none" stroke="#000" stroke-width="2" marker-end="url(#arrowhead)"/><polyline points="790,100 889,100 889,100 988,100" fill="none" stroke="#000" stroke-width="2" marker-end="url(#arrowhead)"/><polyline points="990,100 891,100 891,400 792,400" fill="none" stroke="#000" stroke-width="2" marker-end="url(#arrowhead)"/><polyline points="540,400 441,400 441,100 342,100" fill="none" stroke="#000" stroke-width="2" marker-end="url(#arrowhead)"/><rect x="90" y="50" width="250" height="100" fill="#FFE691" stroke="#000" stroke-width="2"/><text x="215" y="100" font-family="'Arial Narrow', 'Helvetica Neue Condensed', 'Ubuntu Condensed', 'Liberation Sans Narrow', Impact, sans-serif" font-size="24" font-weight="normal" text-anchor="middle" dominant-baseline="middle">Input</text><rect x="540" y="50" width="250" height="100" fill="#FFE691" stroke="#000" stroke-width="2"/><text x="665" y="100" font-family="'Arial Narrow', 'Helvetica Neue Condensed', 'Ubuntu Condensed', 'Liberation Sans Narrow', Impact, sans-serif" font-size="24" font-weight="normal" text-anchor="middle" dominant-baseline="middle">Process</text><rect x="990" y="50" width="250" height="100" fill="#FFE691" stroke="#000" stroke-width="2"/><text x="1115" y="100" font-family="'Arial Narrow', 'Helvetica Neue Condensed', 'Ubuntu Condensed', 'Liberation Sans Narrow', Impact, sans-serif" font-size="24" font-weight="normal" text-anchor="middle" dominant-baseline="middle">Output</text><rect x="540" y="350" width="250" height="100" fill="#FFCE33" stroke="#000" stroke-width="2"/><text x="665" y="400" font-family="'Arial Narrow', 'Helvetica Neue Condensed', 'Ubuntu Condensed', 'Liberation Sans Narrow', Impact, sans-serif" font-size="24" font-weight="normal" text-anchor="middle" dominant-baseline="middle">Review</text></svg>