<svg width="1410" height="280" xmlns="http://www.w3.org/2000/svg"><defs><marker id="arrowhead" markerWidth="12" markerHeight="13" refX="8" refY="5.5" orient="auto" viewBox="-1 -1 14 13"><polyline points="0 0.5, 8 5.5, 0 10.4" fill="none" stroke="#000" stroke-width="1.5" stroke-linejoin="miter"/></marker></defs><rect width="1410" height="280" fill="#fff"/><rect x="75" y="5" width="580" height="160" fill="none" stroke="#000" stroke-width="1.5" stroke-dasharray="6,4" rx="8"/><text x="85" y="31" font-family="'Arial Narrow', 'Helvetica Neue Condensed', 'Ubuntu Condensed', 'Liberation Sans Narrow', Impact, sans-serif" font-size="24">Development</text><rect x="825" y="5" width="580" height="160" fill="none" stroke="#000" stroke-width="1.5" stroke-dasharray="6,4" rx="8"/><text x="835" y="31" font-family="'Arial Narrow', 'Helvetica Neue Condensed', 'Ubuntu Condensed', 'Liberation Sans Narrow', Impact, sans-serif" font-size="24">Operations</text><polyline points="340,100 364,100 364,100 388,100" fill="none" stroke="#000" stroke-width="2" marker-end="url(#arrowhead)"/><polyline points="640,100 739,100 739,100 838,100" fill="none" stroke="#000" stroke-width="2" marker-end="url(#arrowhead)"/><polyline points="1090,100 1114,100 1114,100 1138,100" fill="none" stroke="#000" stroke-width="2" marker-end="url(#arrowhead)"/><rect x="90" y="50" width="250" height="100" fill="#FFCE33" stroke="#000" stroke-width="2"/><text x="215" y="100" font-family="'Arial Narrow', 'Helvetica Neue Condensed', 'Ubuntu Condensed', 'Liberation Sans Narrow', Impact, sans-serif" font-size="24" text-anchor="middle" dominant-baseline="middle" font-weight="normal">Frontend</text><rect x="390" y="50" width="250" height="100" fill="#FFCE33" stroke="#000" stroke-width="2"/><text x="515" y="100" font-family="'Arial Narrow', 'Helvetica Neue Condensed', 'Ubuntu Condensed', 'Liberation Sans Narrow', Impact, sans-serif" font-size="24" font-weight="normal" text-anchor="middle" dominant-baseline="middle">Backend</text><rect x="840" y="50" width="250" height="100" fill="#FFCE33" stroke="#000" stroke-width="2"/><text x="965" y="100" font-family="'Arial Narrow', 'Helvetica Neue Condensed', 'Ubuntu Condensed', 'Liberation Sans Narrow', Impact, sans-serif" font-size="24" font-weight="normal" text-anchor="middle" dominant-baseline="middle">Deploy</text><rect x="1140" y="50" width="250" height="100" fill="#FFCE33" stroke="#000" stroke-width="2"/><text x="1265" y="100" font-family="'Arial Narrow', 'Helvetica Neue Condensed', 'Ubuntu Condensed', 'Liberation Sans Narrow', Impact, sans-serif" font-size="24" font-weight="normal" text-anchor="middle" dominant-baseline="middle">Monitor</text></svg>