<svg width="1410" height="730" xmlns="http://www.w3.org/2000/svg"><defs><marker id="arrowhead" markerWidth="12" markerHeight="13" refX="8" refY="5.5" orient="auto" viewBox="-1 -1 14 13"><polyline points="0 0.5, 8 5.5, 0 10.4" fill="none" stroke="#000" stroke-width="1.5" stroke-linejoin="miter"/></marker></defs><rect width="1410" height="730" fill="#fff"/><line x1="640" y1="250" x2="688" y2="250" stroke="#000" stroke-width="2" marker-end="url(#arrowhead)"/><polyline points="340,100 364,100 364,250 388,250" fill="none" stroke="#000" stroke-width="2" marker-end="url(#arrowhead)"/><polyline points="940,550 1039,550 1039,100 1138,100" fill="none" stroke="#000" stroke-width="2" marker-end="url(#arrowhead)"/><rect x="90" y="50" width="250" height="100" fill="#FFE691" stroke="#000" stroke-width="2"/><text x="215" y="100" font-family="'Arial Narrow', 'Helvetica Neue Condensed', 'Ubuntu Condensed', 'Liberation Sans Narrow', Impact, sans-serif" font-size="24" dominant-baseline="middle" font-weight="normal" text-anchor="middle">Outside</text><rect x="390" y="200" width="250" height="100" fill="#FFDE72" stroke="#000" stroke-width="2"/><text x="515" y="250" font-family="'Arial Narrow', 'Helvetica Neue Condensed', 'Ubuntu Condensed', 'Liberation Sans Narrow', Impact, sans-serif" font-size="24" font-weight="normal" text-anchor="middle" dominant-baseline="middle">Alpha</text><rect x="690" y="200" width="250" height="100" fill="#FFDE72" stroke="#000" stroke-width="2"/><text x="815" y="250" font-family="'Arial Narrow', 'Helvetica Neue Condensed', 'Ubuntu Condensed', 'Liberation Sans Narrow', Impact, sans-serif" font-size="24" font-weight="normal" text-anchor="middle" dominant-baseline="middle">Beta</text><rect x="690" y="500" width="250" height="100" fill="#FFCE33" stroke="#000" stroke-width="2"/><text x="815" y="550" font-family="'Arial Narrow', 'Helvetica Neue Condensed', 'Ubuntu Condensed', 'Liberation Sans Narrow', Impact, sans-serif" font-size="24" font-weight="normal" text-anchor="middle" dominant-baseline="middle">Gamma</text><rect x="1140" y="50" width="250" height="100" fill="#FFE691" stroke="#000" stroke-width="2"/><text x="1265" y="100" font-family="'Arial Narrow', 'Helvetica Neue Condensed', 'Ubuntu Condensed', 'Liberation Sans Narrow', Impact, sans-serif" font-size="24" font-weight="normal" text-anchor="middle" dominant-baseline="middle">External</text></svg>