<svg width="1378" height="730" xmlns="http://www.w3.org/2000/svg"><defs><marker id="arrowhead" markerWidth="12" markerHeight="13" refX="8" refY="5.5" orient="auto" viewBox="-1 -1 14 13"><polyline points="0 0.5, 8 5.5, 0 10.4" fill="none" stroke="#000" stroke-width="1.5" stroke-linejoin="miter"/></marker></defs><rect width="1378" height="730" fill="#fff"/><line x1="60" y1="680" x2="60" y2="50" stroke="#000" stroke-width="2" marker-end="url(#arrowhead)"/><text x="30" y="30" font-family="'Arial Narrow', 'Helvetica Neue Condensed', 'Ubuntu Condensed', 'Liberation Sans Narrow', Impact, sans-serif" font-size="18" transform="rotate(-90 30 30)" text-anchor="end">Maturity</text><line x1="60" y1="680" x2="1358" y2="680" stroke="#000" stroke-width="2" marker-end="url(#arrowhead)"/><text x="1348" y="710" font-family="'Arial Narrow', 'Helvetica Neue Condensed', 'Ubuntu Condensed', 'Liberation Sans Narrow', Impact, sans-serif" font-size="18" text-anchor="end">Timeline</text><polyline points="340,100 364,100 364,250 388,250" fill="none" stroke="#000" stroke-width="2" marker-end="url(#arrowhead)"/><polyline points="640,250 664,250 664,400 688,400" fill="none" stroke="#000" stroke-width="2" marker-end="url(#arrowhead)"/><polyline points="940,400 964,400 964,550 988,550" fill="none" stroke="#000" stroke-width="2" marker-end="url(#arrowhead)"/><rect x="90" y="50" width="250" height="100" fill="#D3D3D3" stroke="#000" stroke-width="2"/><text x="215" y="100" font-family="'Arial Narrow', 'Helvetica Neue Condensed', 'Ubuntu Condensed', 'Liberation Sans Narrow', Impact, sans-serif" font-size="24" font-weight="normal" text-anchor="middle" dominant-baseline="middle">Phase 1</text><rect x="390" y="200" width="250" height="100" fill="#D3D3D3" stroke="#000" stroke-width="2"/><text x="515" y="250" font-family="'Arial Narrow', 'Helvetica Neue Condensed', 'Ubuntu Condensed', 'Liberation Sans Narrow', Impact, sans-serif" font-size="24" text-anchor="middle" dominant-baseline="middle" font-weight="normal">Phase 2</text><rect x="690" y="350" width="250" height="100" fill="#ecbae6" stroke="#000" stroke-width="2"/><text x="815" y="400" font-family="'Arial Narrow', 'Helvetica Neue Condensed', 'Ubuntu Condensed', 'Liberation Sans Narrow', Impact, sans-serif" font-size="24" text-anchor="middle" dominant-baseline="middle" font-weight="normal">Phase 3</text><rect x="990" y="500" width="250" height="100" fill="#f5dbf2" stroke="#000" stroke-width="2"/><text x="1115" y="550" font-family="'Arial Narrow', 'Helvetica Neue Condensed', 'Ubuntu Condensed', 'Liberation Sans Narrow', Impact, sans-serif" font-size="24" text-anchor="middle" dominant-baseline="middle" font-weight="normal">Phase 4</text><rect x="1338" y="50" width="30" height="30" fill="#D3D3D3" stroke="#000" stroke-width="1"/><text x="1326" y="65" font-family="'Arial Narrow', 'Helvetica Neue Condensed', 'Ubuntu Condensed', 'Liberation Sans Narrow', Impact, sans-serif" font-size="28" text-anchor="end" dominant-baseline="middle">Done</text><rect x="1338" y="94" width="30" height="30" fill="#ecbae6" stroke="#000" stroke-width="1"/><text x="1326" y="109" font-family="'Arial Narrow', 'Helvetica Neue Condensed', 'Ubuntu Condensed', 'Liberation Sans Narrow', Impact, sans-serif" font-size="28" text-anchor="end" dominant-baseline="middle">Active</text><rect x="1338" y="138" width="30" height="30" fill="#f5dbf2" stroke="#000" stroke-width="1"/><text x="1326" y="153" font-family="'Arial Narrow', 'Helvetica Neue Condensed', 'Ubuntu Condensed', 'Liberation Sans Narrow', Impact, sans-serif" font-size="28" text-anchor="end" dominant-baseline="middle">Planned</text></svg>