<svg width="1260" height="880" xmlns="http://www.w3.org/2000/svg"><defs><marker id="arrowhead" markerWidth="12" markerHeight="13" refX="8" refY="5.5" orient="auto" viewBox="-1 -1 14 13"><polyline points="0 0.5, 8 5.5, 0 10.4" fill="none" stroke="#000" stroke-width="1.5" stroke-linejoin="miter"/></marker></defs><rect width="1260" height="880" fill="#fff"/><polyline points="665,150 665,249 365,249 365,348" fill="none" stroke="#000" stroke-width="2" marker-end="url(#arrowhead)"/><polyline points="665,150 665,249 965,249 965,348" fill="none" stroke="#000" stroke-width="2" marker-end="url(#arrowhead)"/><polyline points="365,450 365,549 215,549 215,648" fill="none" stroke="#000" stroke-width="2" marker-end="url(#arrowhead)"/><polyline points="365,450 365,549 515,549 515,648" fill="none" stroke="#000" stroke-width="2" marker-end="url(#arrowhead)"/><polyline points="965,450 965,549 815,549 815,648" fill="none" stroke="#000" stroke-width="2" marker-end="url(#arrowhead)"/><polyline points="965,450 965,549 1115,549 1115,648" fill="none" stroke="#000" stroke-width="2" marker-end="url(#arrowhead)"/><rect x="540" y="50" width="250" height="100" fill="#FFE691" stroke="#000" stroke-width="2"/><text x="665" y="100" font-family="'Arial Narrow', 'Helvetica Neue Condensed', 'Ubuntu Condensed', 'Liberation Sans Narrow', Impact, sans-serif" font-size="24" text-anchor="middle" dominant-baseline="middle" font-weight="normal">CEO</text><rect x="240" y="350" width="250" height="100" fill="#FFDA62" stroke="#000" stroke-width="2"/><text x="365" y="400" font-family="'Arial Narrow', 'Helvetica Neue Condensed', 'Ubuntu Condensed', 'Liberation Sans Narrow', Impact, sans-serif" font-size="24" font-weight="normal" text-anchor="middle" dominant-baseline="middle">VP Sales</text><rect x="840" y="350" width="250" height="100" fill="#FFDA62" stroke="#000" stroke-width="2"/><text x="965" y="400" font-family="'Arial Narrow', 'Helvetica Neue Condensed', 'Ubuntu Condensed', 'Liberation Sans Narrow', Impact, sans-serif" font-size="24" font-weight="normal" text-anchor="middle" dominant-baseline="middle">VP Eng</text><rect x="90" y="650" width="250" height="100" fill="#FFCE33" stroke="#000" stroke-width="2"/><text x="215" y="700" font-family="'Arial Narrow', 'Helvetica Neue Condensed', 'Ubuntu Condensed', 'Liberation Sans Narrow', Impact, sans-serif" font-size="24" dominant-baseline="middle" font-weight="normal" text-anchor="middle">East</text><rect x="390" y="650" width="250" height="100" fill="#FFCE33" stroke="#000" stroke-width="2"/><text x="515" y="700" font-family="'Arial Narrow', 'Helvetica Neue Condensed', 'Ubuntu Condensed', 'Liberation Sans Narrow', Impact, sans-serif" font-size="24" font-weight="normal" text-anchor="middle" dominant-baseline="middle">West</text><rect x="690" y="650" width="250" height="100" fill="#FFCE33" stroke="#000" stroke-width="2"/><text x="815" y="700" font-family="'Arial Narrow', 'Helvetica Neue Condensed', 'Ubuntu Condensed', 'Liberation Sans Narrow', Impact, sans-serif" font-size="24" dominant-baseline="middle" font-weight="normal" text-anchor="middle">Backend</text><rect x="990" y="650" width="250" height="100" fill="#FFCE33" stroke="#000" stroke-width="2"/><text x="1115" y="700" font-family="'Arial Narrow', 'Helvetica Neue Condensed', 'Ubuntu Condensed', 'Liberation Sans Narrow', Impact, sans-serif" font-size="24" font-weight="normal" text-anchor="middle" dominant-baseline="middle">Frontend</text></svg>